<svg width="80" height="80" viewBox="0 0 80 80" fill="none" xmlns="http://www.w3.org/2000/svg">
<path d="M47.6446 8.08021C47.3935 8.69017 47.1796 9.31409 47.0076 9.95199C45.0499 9.56087 43.0225 9.36066 40.9533 9.36066C38.884 9.36066 36.8752 9.56086 34.9222 9.94733C34.7502 9.30943 34.5363 8.68085 34.2852 8.07554C36.4381 7.62855 38.6655 7.40039 40.9533 7.40039C43.2411 7.40039 45.4824 7.63787 47.6446 8.08021Z" fill="#34358A"/>
<path d="M68.1503 56.2495V67.5501C68.1503 72.7743 63.9095 77.5562 58.7108 77.9613C57.5251 78.0544 56.3812 77.9613 55.2977 77.6866C51.5312 76.7368 48.5831 73.7102 47.7414 69.8875V69.8782C47.7042 69.7245 47.6763 69.5662 47.6577 69.4079C47.6577 69.4079 47.6577 69.3939 47.6484 69.3893V69.3613C47.6484 68.7141 48.0623 68.1694 48.6342 67.9645C48.7272 67.9412 48.9458 67.89 48.9458 67.89C54.5956 66.4186 59.5339 63.1686 63.1144 58.7731C63.9095 57.8 64.6349 56.771 65.2906 55.6814C65.2952 55.6814 65.2952 55.6721 65.2952 55.6721C65.3557 55.5697 65.4208 55.4579 65.4859 55.3508L65.5184 55.3043C65.7974 54.9737 66.202 54.7642 66.667 54.7642C67.3319 54.7642 67.8899 55.1972 68.0852 55.7932C68.1317 55.9422 68.155 56.0865 68.155 56.2448L68.1503 56.2495Z" fill="#FF3867"/>
<path d="M33.2986 67.9683C33.8705 68.1732 34.2844 68.7226 34.2844 69.3652V69.3931C34.2844 69.3931 34.2797 69.4071 34.2797 69.4118C34.2611 69.5701 34.2332 69.7284 34.1914 69.882V69.8913C33.3544 73.7094 30.4062 76.7359 26.6397 77.6905C25.5516 77.9652 24.4031 78.0583 23.208 77.9652C18.0186 77.5508 13.7871 72.7735 13.7871 67.5586V56.258C13.7871 56.0997 13.8104 55.9507 13.8569 55.811C14.0522 55.2104 14.6102 54.7773 15.2751 54.7773C15.7401 54.7773 16.1493 54.9869 16.4283 55.3221L16.4562 55.364C16.5167 55.4711 16.5818 55.5829 16.6469 55.6853V55.6946C17.3025 56.7795 18.0279 57.8132 18.8277 58.7863C22.4082 63.1864 27.3419 66.4318 32.9963 67.9032C32.9963 67.9032 33.2102 67.9544 33.3032 67.9776L33.2986 67.9683Z" fill="#FF3867"/>
<path d="M63.6221 24.9495C63.1292 24.1998 62.5991 23.4735 62.0365 22.7797C58.4141 18.2818 53.3735 14.9713 47.6028 13.5139C47.4215 13.4673 47.2913 13.2997 47.3099 13.1088C47.375 12.4243 47.5052 11.7538 47.7005 11.102C47.7888 10.79 47.9004 10.4734 48.0213 10.1707C48.1097 9.95188 48.2073 9.72838 48.3096 9.5142C48.5003 9.12308 48.7095 8.74593 48.9467 8.37809C49.1373 8.08475 49.3419 7.80071 49.5651 7.53066C49.7511 7.29319 49.9464 7.0697 50.1557 6.85086C50.909 6.05465 51.7878 5.37949 52.7922 4.85334C53.0526 4.71832 53.3084 4.58795 53.5781 4.47155H53.592C53.592 4.47155 53.606 4.46223 53.6106 4.46223C54.8243 4.14561 56.1123 4.78351 56.5634 5.98015C56.6424 6.19433 56.6936 6.41783 56.7122 6.63201C56.7308 6.83223 56.7819 7.04176 56.861 7.23267C57.2516 8.29428 58.3351 8.97409 59.4511 8.83906C60.0928 8.75525 60.6368 8.45259 61.0181 8.01956C61.0646 7.96835 61.1158 7.90781 61.1576 7.85193C61.6505 7.19541 61.804 6.31074 61.4971 5.48659C61.325 5.03029 61.0367 4.66244 60.6833 4.38773C60.581 4.31788 60.4741 4.25271 60.3718 4.18287C60.1718 4.06646 59.9765 3.93609 59.7673 3.81968C59.3674 3.58222 58.9442 3.36337 58.5118 3.16316C58.2839 3.05141 58.0653 2.93034 57.8422 2.80928C57.0795 2.39023 56.2425 2.13414 55.3962 2.04101C55.1684 2.02239 54.9359 2.00376 54.7127 2.00376C54.4337 2.00376 54.164 2.02238 53.8943 2.05963C53.0852 2.15741 52.29 2.4135 51.5646 2.81859C51.4902 2.8605 51.4251 2.90706 51.3461 2.94896C50.988 3.1678 50.6486 3.41925 50.3277 3.71259C50.1278 3.89883 49.9418 4.09905 49.7604 4.31324C49.7511 4.31324 49.7511 4.32721 49.7465 4.34117C49.4861 4.67642 49.2536 5.03029 49.0211 5.38882C48.4817 6.2409 48.0213 7.13954 47.6447 8.07544C47.3936 8.6854 47.1797 9.30932 47.0076 9.94722C46.9751 10.0729 46.9379 10.1987 46.9053 10.3244V10.3477C46.8588 10.5246 46.817 10.7015 46.7798 10.8785C46.6356 11.5443 46.5287 12.2148 46.4682 12.8899C46.4496 13.0762 46.2776 13.2112 46.0916 13.174L46.0079 13.1553C44.7663 12.9179 43.4969 12.7782 42.1995 12.713H39.7722C38.4609 12.7782 37.1822 12.9225 35.936 13.16L35.7686 13.1926C35.6198 13.2252 35.4803 13.1181 35.4663 12.9644C35.378 11.9401 35.1966 10.925 34.9223 9.93791C34.7502 9.30002 34.5363 8.67143 34.2852 8.06613C33.9132 7.13489 33.4529 6.23624 32.9134 5.38416C32.6856 5.02097 32.4438 4.6671 32.188 4.33651C32.1787 4.32255 32.1787 4.31323 32.1648 4.30858C31.9927 4.09905 31.8021 3.89883 31.6021 3.70793C31.2813 3.41458 30.9418 3.16316 30.5838 2.94432C30.5094 2.90241 30.4396 2.85585 30.3652 2.81394C29.6398 2.40886 28.8493 2.15276 28.0402 2.05498C27.538 1.98514 27.0358 1.98514 26.5383 2.03635C25.6873 2.12948 24.8503 2.38557 24.0877 2.80462C23.8645 2.92568 23.646 3.04675 23.4181 3.1585C22.9857 3.35871 22.5718 3.58221 22.158 3.81502C21.958 3.93143 21.7627 4.05714 21.5628 4.17821C21.4558 4.24805 21.3535 4.31324 21.2512 4.38308C20.8932 4.65779 20.6095 5.02563 20.4328 5.48193C20.1213 6.30608 20.2794 7.18611 20.7769 7.84729C20.8188 7.89851 20.8606 7.96369 20.9164 8.0149C21.2931 8.44327 21.8371 8.75059 22.4835 8.8344C23.5995 8.96477 24.6876 8.28962 25.0735 7.22801C25.1526 7.0371 25.1991 6.82758 25.2223 6.62737C25.2456 6.41318 25.2967 6.18967 25.3711 5.97549C25.8268 4.77885 27.1149 4.1363 28.3239 4.45758C28.3332 4.45758 28.3378 4.45757 28.3471 4.46689H28.3518C28.6308 4.58329 28.8912 4.71367 29.1469 4.8487C30.7465 5.69147 32.0485 6.92071 32.9832 8.37344C33.225 8.74128 33.4389 9.12308 33.6296 9.5142C33.7319 9.72838 33.8295 9.94722 33.9178 10.1661C34.3038 11.1113 34.5456 12.1077 34.634 13.1321C34.5828 13.3416 34.4387 13.4626 34.341 13.5278C28.5703 14.9806 23.5483 18.3004 19.926 22.7937C19.3633 23.4968 18.8286 24.2185 18.345 24.9681C15.5643 29.2285 13.9414 34.3177 13.9414 39.7841C13.9414 40.3755 13.96 40.9621 14.0019 41.5395C14.1181 43.5184 14.4622 45.4414 14.9923 47.2713C16.1083 51.1545 18.066 54.6839 20.6467 57.6406C23.9064 61.3656 28.1797 64.1826 33.0204 65.6772H33.0623C33.0623 65.6772 33.0808 65.6865 33.0948 65.6912C33.1087 65.7005 33.118 65.7005 33.1273 65.7005C33.132 65.7005 33.1459 65.7145 33.1599 65.7145C33.1645 65.7145 33.1738 65.7145 33.1738 65.7191C33.2854 65.7377 33.4063 65.7517 33.5226 65.7517C33.8667 65.7517 34.1783 65.6493 34.4294 65.4537C34.6526 65.2861 34.8246 65.0486 34.9223 64.7832C34.9223 64.7786 34.9316 64.7646 34.9316 64.7599C34.9734 64.6622 35.0013 64.5644 35.0339 64.4713C36.3638 61.184 40.0931 59.5962 43.3853 60.9186C45.1523 61.631 46.4357 63.0465 47.0262 64.718C47.0355 64.7367 47.0448 64.7646 47.0588 64.7972C47.1564 65.0626 47.3285 65.2908 47.5424 65.4584C47.7935 65.6539 48.1004 65.7563 48.4445 65.7563C48.5747 65.7563 48.7002 65.7424 48.8211 65.7145C48.8304 65.7145 48.8444 65.7051 48.8583 65.7005C48.8723 65.7005 48.8909 65.6865 48.9234 65.6772C48.9234 65.6772 48.942 65.6772 48.956 65.6725C53.8013 64.1732 58.07 61.3656 61.3297 57.6406C61.5436 57.3985 61.7482 57.1517 61.9528 56.9049C62.2039 56.593 61.8784 56.1506 61.5064 56.3043C60.6089 56.6675 59.8277 56.9422 59.1767 57.1471C59.0837 57.175 59.0093 57.2402 58.9675 57.3287C58.4839 58.2645 57.5213 59.0328 56.2612 59.4612C55.5543 59.7126 54.7406 59.843 53.9268 59.843C50.9043 59.843 48.5421 58.1249 48.5421 55.9225C48.5421 53.7201 50.9043 52.002 53.9268 52.002C54.7266 52.002 55.5358 52.1323 56.2565 52.3791C56.8843 52.598 57.4376 52.8913 57.8933 53.2498C57.991 53.329 58.1165 53.3569 58.2374 53.315C59.9347 52.7563 62.3434 51.7692 65.1473 50.079C65.4961 49.8648 65.8448 49.6506 66.1889 49.4224C66.2587 49.3759 66.3145 49.3107 66.3424 49.2315C66.6353 48.4539 66.8911 47.6484 67.1096 46.8336C67.57 45.1294 67.8676 43.3647 67.9792 41.5349C68.021 40.9575 68.0396 40.3755 68.0396 39.7795C68.0396 34.3038 66.4121 29.2146 63.6314 24.9495H63.6221ZM60.116 46.9127C60.116 49.0965 58.349 50.8659 56.1775 50.8659H25.7757C23.6041 50.8659 21.8418 49.0965 21.8418 46.9127V37.0835C21.8557 35.9567 22.3486 34.937 23.1205 34.2339C23.167 34.192 23.2182 34.1501 23.2647 34.1175C24.0877 33.4005 24.9573 32.73 25.8594 32.1247C27.7891 30.8116 29.8956 29.7454 32.1462 28.9724C34.9176 28.0086 37.8843 27.4871 40.9812 27.4871C47.7191 27.4871 53.8757 29.9456 58.6094 34.0197C58.6094 34.0197 58.6125 34.0229 58.6187 34.0291C58.7071 34.1129 58.8001 34.1874 58.8884 34.2665C59.6464 34.9836 60.1114 35.994 60.1114 37.1254V46.9221L60.116 46.9127Z" fill="#FF3867"/>
<path d="M60.1199 37.1212V46.9178C60.1199 49.1016 58.3529 50.8709 56.1814 50.8709H25.7796C23.6081 50.8709 21.8457 49.1016 21.8457 46.9178V37.0886C21.8597 35.9618 22.3526 34.9421 23.1245 34.239C23.171 34.1971 23.2221 34.1552 23.2686 34.1226C24.0917 33.4055 24.9612 32.7351 25.8633 32.1298C27.7931 30.8167 29.8995 29.7504 32.1501 28.9775C34.9215 28.0137 37.8882 27.4922 40.9851 27.4922C47.723 27.4922 53.8796 29.9507 58.6133 34.0248C58.6133 34.0248 58.6164 34.0279 58.6226 34.0341C58.711 34.118 58.804 34.1924 58.8923 34.2716C59.6503 34.9886 60.1153 35.999 60.1153 37.1305L60.1199 37.1212Z" fill="#FF3867"/>
<path d="M60.1199 37.1212V46.9178C60.1199 49.1016 58.3529 50.8709 56.1814 50.8709H25.7796C23.6081 50.8709 21.8457 49.1016 21.8457 46.9178V37.0886C21.8597 35.9618 22.3526 34.9421 23.1245 34.239C23.171 34.1971 23.2221 34.1552 23.2686 34.1226C24.0917 33.4055 24.9612 32.7351 25.8633 32.1298C27.7931 30.8167 29.8995 29.7504 32.1501 28.9775C34.9215 28.0137 37.8882 27.4922 40.9851 27.4922C47.723 27.4922 53.8796 29.9507 58.6133 34.0248C58.6133 34.0248 58.6164 34.0279 58.6226 34.0341C58.711 34.118 58.804 34.1924 58.8923 34.2716C59.6503 34.9886 60.1153 35.999 60.1153 37.1305L60.1199 37.1212Z" fill="white"/>
<path d="M31.3803 38.8531C33.059 38.8531 34.5098 39.9985 34.9097 41.6375C35.1096 42.4663 36.035 42.9552 36.9371 42.5408C37.4021 42.3313 37.6811 41.8424 37.6904 41.3302C37.6997 41.1998 37.6904 41.0741 37.6578 40.9484C37.5834 40.6597 37.4858 40.3663 37.3695 40.0683C36.1373 36.9906 32.8079 35.3609 29.6366 36.2642C29.4134 36.3201 29.1902 36.3946 28.9763 36.4877C27.0558 37.2607 25.6143 38.9276 25.1167 40.9484C25.0191 41.3628 25.1074 41.8005 25.3725 42.1404C25.6468 42.4896 26.0514 42.6898 26.4978 42.6898C27.1441 42.6898 27.7068 42.2521 27.8649 41.6282C28.1811 40.3245 29.1716 39.3141 30.455 38.9742C30.7526 38.8903 31.0595 38.8484 31.3803 38.8484V38.8531Z" fill="#00176B"/>
<path d="M44.3802 40.953C44.2826 41.3674 44.3709 41.8051 44.6453 42.145C44.9197 42.4942 45.3242 42.6944 45.7613 42.6944C46.417 42.6944 46.9796 42.2568 47.1377 41.6328C47.4446 40.3291 48.4397 39.3187 49.7231 38.9788C50.0207 38.895 50.3369 38.8531 50.6578 38.8531C52.3318 38.8531 53.7779 39.9985 54.1778 41.6375C54.3266 42.2614 54.8893 42.6898 55.5449 42.6898C56.3308 42.6898 56.9678 42.0612 56.9678 41.279C56.9678 41.1626 56.9492 41.0555 56.926 40.9484C56.8609 40.6597 56.7586 40.3663 56.6423 40.0683C55.4008 36.9906 52.0714 35.3609 48.9001 36.2642C48.6862 36.3201 48.463 36.3946 48.2398 36.4877C46.3286 37.2607 44.8778 38.9276 44.3802 40.9484V40.953Z" fill="#00176B"/>
<path d="M11.2168 31.4122C11.2168 31.4122 11.2122 31.4308 11.2075 31.4401C11.3145 31.5286 11.4214 31.6263 11.5191 31.7241C12.3142 32.5203 12.8118 33.6238 12.8118 34.8391V45.6182C12.8118 47.043 12.1375 48.3095 11.0866 49.115C10.7658 49.3664 10.4031 49.576 10.0125 49.7296C9.97061 49.7436 9.92876 49.7622 9.88691 49.7715C9.69626 49.846 9.49631 49.9019 9.29171 49.9438C9.00806 50.0043 8.71046 50.0323 8.40356 50.0323C5.9716 50.0323 4 48.058 4 45.6228V34.8438C4 32.4086 5.9716 30.4343 8.40356 30.4343C8.75696 30.4343 9.10571 30.4763 9.43121 30.5554C12.8536 19.632 21.7909 11.1484 32.9696 8.36865C33.2114 8.73649 33.4253 9.11829 33.6159 9.50941C33.7182 9.7236 33.8159 9.94245 33.9042 10.1613C23.0743 12.6803 14.416 20.8612 11.2168 31.4122Z" fill="#34358A"/>
<path d="M77.9068 34.844V45.6231C77.9068 48.0583 75.9352 50.0325 73.5033 50.0325C73.201 50.0325 72.9034 50.0046 72.6198 49.9441C72.2106 49.8603 71.82 49.7206 71.4573 49.525C71.3364 49.4598 71.1922 49.4691 71.0853 49.5529C68.4859 51.5691 66.0586 53.0404 63.9475 54.102C61.7573 55.2102 59.9066 55.8947 58.5488 56.2998C58.3907 56.3463 58.2652 56.4674 58.2047 56.621C57.8932 57.4452 57.0562 58.139 55.9448 58.5161C55.345 58.7256 54.6521 58.842 53.9267 58.842C51.4948 58.842 49.5232 57.5243 49.5232 55.8993C49.5232 54.2743 51.4948 52.9613 53.9267 52.9613C54.6521 52.9613 55.3357 53.0777 55.9402 53.2826C56.5912 53.5107 57.1538 53.8413 57.563 54.2417C57.7025 54.3814 57.9071 54.428 58.0978 54.3721C59.8462 53.8273 62.5013 52.7983 65.654 50.8986C66.8909 50.1536 68.2069 49.2736 69.574 48.2353C69.7135 48.1282 69.76 47.9279 69.6717 47.7743C69.309 47.1364 69.1044 46.3961 69.1044 45.6092V34.8301C69.1044 33.4565 69.7321 32.2366 70.7086 31.431C67.5141 20.8708 58.8604 12.6806 48.0352 10.1569C48.1235 9.93805 48.2212 9.71455 48.3235 9.50037C48.5141 9.10925 48.7234 8.7321 48.9605 8.36426C60.1345 11.1487 69.0625 19.6276 72.4849 30.5417C72.8104 30.4626 73.1592 30.4206 73.5126 30.4206C74.7262 30.4206 75.8329 30.9142 76.6234 31.7151C77.4232 32.5113 77.9161 33.6148 77.9161 34.8301L77.9068 34.844Z" fill="#34358A"/>
</svg>
